<svg xmlns="http://www.w3.org/2000/svg" xmlns:xlink="http://www.w3.org/1999/xlink" width="1920" height="227" viewBox="0 0 1920 227">
  <defs>
    <clipPath id="clip-path">
      <rect id="Rectangle_312" data-name="Rectangle 312" width="1920" height="227" transform="translate(3677 4734)" fill="none"/>
    </clipPath>
    <linearGradient id="linear-gradient" x1="0.5" y1="1" x2="0.5" gradientUnits="objectBoundingBox">
      <stop offset="0" stop-color="#ffd863"/>
      <stop offset="1" stop-color="#fcb21e"/>
    </linearGradient>
    <filter id="Ellipse_79" x="34" y="23.994" width="159" height="159" filterUnits="userSpaceOnUse">
      <feOffset dy="3" input="SourceAlpha"/>
      <feGaussianBlur stdDeviation="15" result="blur"/>
      <feFlood flood-opacity="0.141"/>
      <feComposite operator="in" in2="blur"/>
      <feComposite in="SourceGraphic"/>
    </filter>
    <filter id="Ellipse_82" x="1601" y="83.994" width="167" height="167" filterUnits="userSpaceOnUse">
      <feOffset dy="3" input="SourceAlpha"/>
      <feGaussianBlur stdDeviation="15" result="blur-2"/>
      <feFlood flood-opacity="0.078"/>
      <feComposite operator="in" in2="blur-2"/>
      <feComposite in="SourceGraphic"/>
    </filter>
    <linearGradient id="linear-gradient-3" y1="0" y2="1" xlink:href="#linear-gradient"/>
    <filter id="Ellipse_81" x="1301.536" y="44.735" width="119.394" height="119.394" filterUnits="userSpaceOnUse">
      <feOffset dy="3" input="SourceAlpha"/>
      <feGaussianBlur stdDeviation="15" result="blur-3"/>
      <feFlood flood-opacity="0.169"/>
      <feComposite operator="in" in2="blur-3"/>
      <feComposite in="SourceGraphic"/>
    </filter>
    <filter id="Ellipse_80" x="391.232" y="128.841" width="104.697" height="104.697" filterUnits="userSpaceOnUse">
      <feOffset dy="3" input="SourceAlpha"/>
      <feGaussianBlur stdDeviation="15" result="blur-4"/>
      <feFlood flood-opacity="0.169"/>
      <feComposite operator="in" in2="blur-4"/>
      <feComposite in="SourceGraphic"/>
    </filter>
    <filter id="Ellipse_83" x="1826.232" y="128.841" width="104.697" height="104.697" filterUnits="userSpaceOnUse">
      <feOffset dy="3" input="SourceAlpha"/>
      <feGaussianBlur stdDeviation="15" result="blur-5"/>
      <feFlood flood-opacity="0.169"/>
      <feComposite operator="in" in2="blur-5"/>
      <feComposite in="SourceGraphic"/>
    </filter>
  </defs>
  <g id="footer-bottom-border" transform="translate(-3677 -4734)" clip-path="url(#clip-path)">
    <path id="Path_202" data-name="Path 202" d="M0,0H1920V230H0Z" transform="translate(3677 4734)" fill="none"/>
    <g id="footer-bottom-border-2" data-name="footer-bottom-border">
      <path id="Path_201" data-name="Path 201" d="M0,47.427s98.438,19.243,174.987,4.811,144.38-28.984,231.332-12.989S542.7,67.631,598.084,65.647s85.852-.445,175.282-22.8,200.811-61.28,323.472-32.825,159.145,38.923,231.7,30.793,121.746-21.951,187.4-9.146S1625.9,57.682,1696.425,42.133,1808.212,15.813,1854.96,27.3,1920,49.653,1920,49.653V189.185H0Z" transform="translate(3677 4774.402)" fill="#623f99"/>
      <g transform="matrix(1, 0, 0, 1, 3677, 4734)" filter="url(#Ellipse_79)">
        <ellipse id="Ellipse_79-2" data-name="Ellipse 79" cx="34.5" cy="34.5" rx="34.5" ry="34.5" transform="translate(79 65.99)" fill="url(#linear-gradient)"/>
      </g>
      <g transform="matrix(1, 0, 0, 1, 3677, 4734)" filter="url(#Ellipse_82)">
        <ellipse id="Ellipse_82-2" data-name="Ellipse 82" cx="38.5" cy="38.5" rx="38.5" ry="38.5" transform="translate(1646 125.99)" fill="url(#linear-gradient)"/>
      </g>
      <g transform="matrix(1, 0, 0, 1, 3677, 4734)" filter="url(#Ellipse_81)">
        <ellipse id="Ellipse_81-2" data-name="Ellipse 81" cx="12" cy="12" rx="12" ry="12" transform="matrix(-0.97, -0.26, 0.26, -0.97, 1369.72, 116.13)" fill="url(#linear-gradient-3)"/>
      </g>
      <g transform="matrix(1, 0, 0, 1, 3677, 4734)" filter="url(#Ellipse_80)">
        <ellipse id="Ellipse_80-2" data-name="Ellipse 80" cx="6" cy="6" rx="6" ry="6" transform="matrix(-0.97, -0.26, 0.26, -0.97, 447.82, 185.54)" fill="url(#linear-gradient-3)"/>
      </g>
      <g transform="matrix(1, 0, 0, 1, 3677, 4734)" filter="url(#Ellipse_83)">
        <ellipse id="Ellipse_83-2" data-name="Ellipse 83" cx="6" cy="6" rx="6" ry="6" transform="matrix(-0.97, -0.26, 0.26, -0.97, 1882.82, 185.54)" fill="url(#linear-gradient-3)"/>
      </g>
    </g>
  </g>
</svg>
